# xmcd CD database file
#
# Track frame offsets:
#	150
#	16395
#	41850
#	63612
#	86387
#	99572
#	118107
#	135797
#	160872
#	182050
#	198987
#	218317
#	233385
#	246352
#	257765
#	276140
#	298330
#	317937
#	336957
#
# Disc length: 4771 seconds
#
# Revision: 2
# Processed by: cddbd v1.5.1PL2 Copyright (c) Steve Scherf et al.
# Submitted via: CDex 1.51
#
DISCID=1212a113
DTITLE=Dizzy Gillespie - Birks Works: The Verve Big-Band Sessions Disk 1
DYEAR=1995
DGENRE=Jazz
TTITLE0=Dizzy's Business
TTITLE1=Hey, Pete
TTITLE2=Jessica's Day
TTITLE3=Tour de Force
TTITLE4=I Can't Get Started
TTITLE5=Stella by Starlight
TTITLE6=Doodlin'
TTITLE7=A Night In Tunisia
TTITLE8=The Champ
TTITLE9=Yesterdays
TTITLE10=Tin Tin Deo
TTITLE11=Groovin' For Nat
TTITLE12=My Reverie
TTITLE13=Dizzy's Blues
TTITLE14=Annie's Dance
TTITLE15=Cool Breeze
TTITLE16=School Days
TTITLE17=Jordu
TTITLE18=Yo No Quiero Bailar
EXTD=YEAR: 1995
EXTT0=
EXTT1=
EXTT2=
EXTT3=
EXTT4=
EXTT5=
EXTT6=
EXTT7=
EXTT8=
EXTT9=
EXTT10=
EXTT11=
EXTT12=
EXTT13=
EXTT14=
EXTT15=
EXTT16=
EXTT17=
EXTT18=
PLAYORDER=
